# xmcd
#
# Track frame offsets:
# 150
# 16200
# 30318
# 43913
# 60795
# 75248
# 91053
# 103778
# 115950
# 130278
# 142558
# 154315
# 164030
# 185395
#
# Disc length: 2697 seconds
#
#
# Revision: 8
# Processed by: cddbd v1.5.1PL0 Copyright (c) Steve Scherf et al.
# Submitted via: FreeRIP 2.942 
#
DISCID=a30a870e
DTITLE=Chris Isaak - Speak Of The Devil
DYEAR=1998
DGENRE=Blues
TTITLE0=Please
TTITLE1=Flying
TTITLE2=Walk Slow
TTITLE3=Breaking Apart
TTITLE4=This Time
TTITLE5=Speak Of The Devil
TTITLE6=Like The Way She Moves
TTITLE7=Wanderin'
TTITLE8=Don't Get So Down On Yourself
TTITLE9=Black Flowers
TTITLE10=I'm Not Sleepy
TTITLE11=7 Lonely Nights
TTITLE12=Talkin' 'bout A Home
TTITLE13=Super Magic 2000
EXTD=YEAR: 1998 ID3G:   0
EXTT0=
EXTT1=
EXTT2=
EXTT3=
EXTT4=
EXTT5=
EXTT6=
EXTT7=
EXTT8=
EXTT9=
EXTT10=
EXTT11=
EXTT12=
EXTT13=
PLAYORDER=
